<svg xmlns="http://www.w3.org/2000/svg" width="14.667" height="16.762" viewBox="0 0 14.667 16.762">
  <path id="Icon_awesome-calendar-alt" data-name="Icon awesome-calendar-alt" d="M0,15.19a1.572,1.572,0,0,0,1.571,1.571H13.1a1.572,1.572,0,0,0,1.571-1.571v-8.9H0ZM10.476,8.774a.394.394,0,0,1,.393-.393h1.31a.394.394,0,0,1,.393.393v1.31a.394.394,0,0,1-.393.393h-1.31a.394.394,0,0,1-.393-.393Zm0,4.19a.394.394,0,0,1,.393-.393h1.31a.394.394,0,0,1,.393.393v1.31a.394.394,0,0,1-.393.393h-1.31a.394.394,0,0,1-.393-.393Zm-4.19-4.19a.394.394,0,0,1,.393-.393h1.31a.394.394,0,0,1,.393.393v1.31a.394.394,0,0,1-.393.393H6.678a.394.394,0,0,1-.393-.393Zm0,4.19a.394.394,0,0,1,.393-.393h1.31a.394.394,0,0,1,.393.393v1.31a.394.394,0,0,1-.393.393H6.678a.394.394,0,0,1-.393-.393ZM2.1,8.774a.394.394,0,0,1,.393-.393H3.8a.394.394,0,0,1,.393.393v1.31a.394.394,0,0,1-.393.393H2.488a.394.394,0,0,1-.393-.393Zm0,4.19a.394.394,0,0,1,.393-.393H3.8a.394.394,0,0,1,.393.393v1.31a.394.394,0,0,1-.393.393H2.488a.394.394,0,0,1-.393-.393ZM13.1,2.1H11.524V.524A.525.525,0,0,0,11,0H9.952a.525.525,0,0,0-.524.524V2.1H5.238V.524A.525.525,0,0,0,4.714,0H3.667a.525.525,0,0,0-.524.524V2.1H1.571A1.572,1.572,0,0,0,0,3.667V5.238H14.667V3.667A1.572,1.572,0,0,0,13.1,2.1Z" fill="#59b486"/>
</svg>
