<svg xmlns="http://www.w3.org/2000/svg" width="2227.462" height="441.066" viewBox="0 0 2227.462 441.066">
  <path id="Path_640" data-name="Path 640" d="M2220.243,401.4a144.155,144.155,0,0,1-23.71-5.522,189.159,189.159,0,0,1-23.726-9.531c-14.991-7.177-30.712-16.755-48.063-29.283-32.481-23.453-66.511-54.335-102.539-87.03-26.375-23.935-53.648-48.685-83.08-73.159-15.928-13.245-30.858-25.058-45.643-36.113-16.491-12.331-32.948-23.789-48.914-34.056-17.519-11.266-35.213-21.592-52.588-30.693a590.456,590.456,0,0,0-56.665-26.022c-9.911-3.916-20-7.568-29.988-10.852-10.286-3.382-20.77-6.476-31.159-9.195-10.68-2.795-21.575-5.276-32.382-7.375-11.091-2.154-22.414-3.967-33.656-5.391-25.471-3.226-51.107-5.742-76.2-7.48-23.981-1.661-48.281-2.667-72.226-2.989-22.7-.306-45.907-.008-68.971.885-21.617.837-43.968,2.231-66.433,4.144-20.98,1.786-42.114,4.006-64.61,6.787-20.1,2.485-40.869,5.368-63.5,8.816-42.128,6.417-83.129,13.626-126.537,21.257-82.484,14.5-167.775,29.5-262.484,38.912-17.674,1.757-36.813,2.954-56.887,3.556-10.471.314-21.352.472-32.542.472q-13.987,0-28.57-.328c-39.722-.894-83.646-3.649-130.552-8.188C479.632,95.381,390.833,82.6,294.688,65.046c-37.769-6.9-76.776-14.558-115.939-22.768-31.329-6.569-62.828-13.5-93.621-20.609C32.7,9.569.069,1.052-.254.967L.252-.967c.323.084,32.932,8.6,85.341,20.691,30.78,7.1,62.266,14.034,93.583,20.6,39.145,8.207,78.135,15.864,115.886,22.758C391.149,80.628,479.89,93.4,558.82,101.033c46.856,4.534,90.729,7.285,130.4,8.178,21.319.48,41.844.432,61.005-.144,20.027-.6,39.12-1.795,56.747-3.548,94.634-9.409,179.889-24.4,262.336-38.891,43.42-7.633,84.431-14.843,126.582-21.264,22.652-3.451,43.442-6.337,63.558-8.824,22.522-2.784,43.681-5.007,64.686-6.8,22.5-1.915,44.878-3.311,66.525-4.149,17.237-.667,34.555-1,51.681-1q8.737,0,17.395.116c23.982.323,48.319,1.331,72.337,2.994,25.126,1.741,50.8,4.261,76.309,7.491,11.284,1.429,22.651,3.25,33.786,5.412,10.849,2.107,21.786,4.6,32.507,7.4,10.429,2.729,20.953,5.835,31.278,9.23,10.025,3.3,20.152,6.961,30.1,10.892a592.418,592.418,0,0,1,56.858,26.111c17.428,9.128,35.173,19.484,52.742,30.782,16.006,10.292,32.5,21.778,49.031,34.137,14.813,11.076,29.769,22.909,45.724,36.177,29.465,24.5,56.754,49.266,83.145,73.216,35.986,32.657,69.975,63.5,102.365,86.89,17.253,12.458,32.874,21.976,47.756,29.1a187.155,187.155,0,0,0,23.474,9.431,142.149,142.149,0,0,0,23.379,5.446Z" transform="translate(2227.191 401.345) rotate(179)" fill="#59b486"/>
</svg>
