<svg xmlns="http://www.w3.org/2000/svg" width="1999.048" height="638.791" viewBox="0 0 1999.048 638.791">
  <path id="Path_641" data-name="Path 641" d="M.283,401.371l-.567-1.918c.286-.085,29.153-8.6,75.538-20.7,27.242-7.107,55.108-14.041,82.824-20.61,34.646-8.211,69.155-15.872,102.568-22.77,85.059-17.558,163.62-30.337,233.5-37.98,41.5-4.539,80.364-7.295,115.509-8.189,18.9-.481,37.088-.433,54.074.144,17.763.6,34.7,1.8,50.341,3.558,83.791,9.418,159.247,24.413,232.218,38.915,38.4,7.631,74.668,14.839,111.933,21.255,20.02,3.447,38.393,6.331,56.169,8.815,19.9,2.781,38.591,5,57.147,6.786,19.869,1.912,39.638,3.306,58.757,4.143,20.4.893,40.923,1.191,61,.885,21.178-.323,42.67-1.328,63.879-2.989,22.189-1.737,44.863-4.254,67.391-7.479,9.939-1.423,19.951-3.236,29.758-5.388,9.555-2.1,19.189-4.578,28.632-7.371a437.136,437.136,0,0,0,54.07-20.038,495.9,495.9,0,0,0,50.111-26.014c15.368-9.1,31.016-19.422,46.511-30.686,14.122-10.265,28.679-21.722,43.265-34.051,13.078-11.054,26.284-22.866,40.373-36.11,26.035-24.473,50.161-49.222,73.493-73.157,31.873-32.7,61.979-63.58,90.716-87.037,15.355-12.533,29.269-22.116,42.538-29.3a156.881,156.881,0,0,1,21.012-9.542,115.483,115.483,0,0,1,21.011-5.531l.316,1.975a113.465,113.465,0,0,0-20.646,5.436,154.881,154.881,0,0,0-20.742,9.421c-13.157,7.12-26.969,16.635-42.225,29.087-28.649,23.384-58.716,54.228-90.548,86.883-23.347,23.95-47.488,48.715-73.555,73.218-14.115,13.268-27.347,25.1-40.452,36.18-14.623,12.361-29.219,23.848-43.38,34.142-15.545,11.3-31.246,21.659-46.668,30.789a497.907,497.907,0,0,1-50.315,26.119,439.145,439.145,0,0,1-54.318,20.13c-9.489,2.807-19.169,5.3-28.77,7.407-9.855,2.163-19.915,3.985-29.9,5.415-22.57,3.231-45.287,5.752-67.519,7.493-21.251,1.664-42.785,2.672-64,2.995-20.117.306-40.681.008-61.119-.886-19.154-.838-38.958-2.235-58.861-4.15-18.585-1.789-37.306-4.012-57.232-6.8-17.8-2.487-36.191-5.374-56.232-8.825-37.29-6.421-73.572-13.631-111.983-21.265-72.931-14.493-148.345-29.48-232.052-38.888-15.589-1.752-32.473-2.945-50.183-3.546-16.946-.575-35.1-.623-53.954-.144-35.088.893-73.893,3.644-115.337,8.177-69.816,7.636-148.312,20.4-233.306,37.948-33.394,6.893-67.883,14.55-102.51,22.756-27.7,6.566-55.554,13.5-82.782,20.6C29.415,392.775.569,401.286.283,401.371Z" transform="translate(49.196 1.015) rotate(7)" fill="#dd8c07"/>
</svg>
