<svg xmlns="http://www.w3.org/2000/svg" width="1920" height="1342.527" viewBox="0 0 1920 1342.527">
  <path id="Subtraction_38" data-name="Subtraction 38" d="M20620,6533.387H18700l0-1133.622c18.652-3.419,48.6-8.714,85.367-14.529,41.537-6.57,83.09-12.441,123.5-17.45,50.533-6.264,99.354-11.183,145.1-14.621,54.137-4.07,104.83-6.133,150.672-6.133,34.471,0,66.9,1.172,96.393,3.483,15.6,1.225,30.7,2.8,44.895,4.679,14.684,1.941,28.781,4.269,41.9,6.918,82.621,16.679,156.451,38.186,227.85,58.984l.012,0c131.469,38.294,255.646,74.466,413.619,74.466,19.176,0,38.836-.546,58.438-1.623,10.049-.553,20.207-1.486,30.189-2.771,9.707-1.246,19.545-2.868,29.236-4.821a441.61,441.61,0,0,0,55.744-15.158,500.731,500.731,0,0,0,52.3-21.392c16.141-7.676,32.66-16.528,49.094-26.312,14.953-8.9,30.473-18.959,46.129-29.895,14.018-9.8,28.217-20.32,43.41-32.172,28.09-21.906,54.27-44.227,79.588-65.812l.039-.033.045-.038c27.01-23.029,52.521-44.781,76.9-63.009,13.043-9.754,24.736-17.738,35.744-24.41a232.393,232.393,0,0,1,33.836-17.261Z" transform="translate(-18700 -5190.859)" fill="#eff0f1"/>
</svg>
